HIERARCHY
ROOT Hips
{
  OFFSET -146.715 71.3901 1257.24
  CHANNELS 6 Xposition Yposition Zposition Zrotation Xrotation Yrotation
  JOINT Spine
  {
    OFFSET 4.5814e-05 8 8.64168e-05
    CHANNELS 6 Xposition Yposition Zposition Zrotation Xrotation Yrotation
    JOINT Spine1
    {
      OFFSET -0.000829003 7.99999 -0.000436283
      CHANNELS 6 Xposition Yposition Zposition Zrotation Xrotation Yrotation
      JOINT Spine2
      {
        OFFSET -0.000987645 8.00002 0.000848719
        CHANNELS 6 Xposition Yposition Zposition Zrotation Xrotation Yrotation
        JOINT Spine3
        {
          OFFSET 0 8 0
          CHANNELS 6 Xposition Yposition Zposition Zrotation Xrotation Yrotation
          JOINT Neck
          {
            OFFSET 3.186e-05 17 3.02275e-05
            CHANNELS 6 Xposition Yposition Zposition Zrotation Xrotation Yrotation
            JOINT Head
            {
              OFFSET -0.000891123 10.8 -0.00103542
              CHANNELS 6 Xposition Yposition Zposition Zrotation Xrotation Yrotation
              End Site
              {
                OFFSET 0 20.25 0
              }
            }
          }
          JOINT LeftShoulder
          {
            OFFSET 5 17 0
            CHANNELS 6 Xposition Yposition Zposition Zrotation Xrotation Yrotation
            JOINT LeftShoulder2
            {
              OFFSET 6.45 0 0
              CHANNELS 6 Xposition Yposition Zposition Zrotation Xrotation Yrotation
              JOINT LeftArm
              {
                OFFSET 6.45 0 1.53488e-05
                CHANNELS 6 Xposition Yposition Zposition Zrotation Xrotation Yrotation
                JOINT LeftForeArm
                {
                  OFFSET 0.00859192 -32.4039 -2.0017
                  CHANNELS 6 Xposition Yposition Zposition Zrotation Xrotation Yrotation
                  JOINT LeftHand
                  {
                    OFFSET -0.00151772 -25.6404 2.00743
                    CHANNELS 6 Xposition Yposition Zposition Zrotation Xrotation Yrotation
                    JOINT LeftHandThumb1
                    {
                      OFFSET -0.503302 -1.49874 2.65202
                      CHANNELS 6 Xposition Yposition Zposition Zrotation Xrotation Yrotation
                      JOINT LeftHandThumb2
                      {
                        OFFSET -8.39188e-05 -3.80016 3.69927
                        CHANNELS 6 Xposition Yposition Zposition Zrotation Xrotation Yrotation
                        JOINT LeftHandThumb3
                        {
                          OFFSET -0.00135552 -2.99904 2.69873
                          CHANNELS 6 Xposition Yposition Zposition Zrotation Xrotation Yrotation
                          End Site
                          {
                            OFFSET 0.000581606 -2.2953 1.80501
                          }
                        }
                      }
                    }
                    JOINT LeftHandIndex
                    {
                      OFFSET 0.00102161 -1.89996 1.59901
                      CHANNELS 6 Xposition Yposition Zposition Zrotation Xrotation Yrotation
                      JOINT LeftHandIndex1
                      {
                        OFFSET -0.00144998 -8.29948 1.9009
                        CHANNELS 6 Xposition Yposition Zposition Zrotation Xrotation Yrotation
                        JOINT LeftHandIndex2
                        {
                          OFFSET -0.00222436 -4.50023 0.000472785
                          CHANNELS 6 Xposition Yposition Zposition Zrotation Xrotation Yrotation
                          JOINT LeftHandIndex3
                          {
                            OFFSET 6.85064e-05 -3.40096 -7.86963e-05
                            CHANNELS 6 Xposition Yposition Zposition Zrotation Xrotation Yrotation
                            End Site
                            {
                              OFFSET -0.00070719 -2.6023 0.00116832
                            }
                          }
                        }
                      }
                    }
                    JOINT LeftHandMiddle
                    {
                      OFFSET -0.249819 -2.20014 0.399921
                      CHANNELS 6 Xposition Yposition Zposition Zrotation Xrotation Yrotation
                      JOINT LeftHandMiddle1
                      {
                        OFFSET -0.00263967 -8.29674 0.999759
                        CHANNELS 6 Xposition Yposition Zposition Zrotation Xrotation Yrotation
                        JOINT LeftHandMiddle2
                        {
                          OFFSET -0.000381615 -4.65028 0.000502278
                          CHANNELS 6 Xposition Yposition Zposition Zrotation Xrotation Yrotation
                          JOINT LeftHandMiddle3
                          {
                            OFFSET 0.00200539 -3.29978 0.00182622
                            CHANNELS 6 Xposition Yposition Zposition Zrotation Xrotation Yrotation
                            End Site
                            {
                              OFFSET -0.000100619 -2.69957 -0.000471587
                            }
                          }
                        }
                      }
                    }
                    JOINT LeftHandRing
                    {
                      OFFSET -0.503706 -2.14821 -0.796963
                      CHANNELS 6 Xposition Yposition Zposition Zrotation Xrotation Yrotation
                      JOINT LeftHandRing1
                      {
                        OFFSET 0.00208669 -7.75026 -0.201252
                        CHANNELS 6 Xposition Yposition Zposition Zrotation Xrotation Yrotation
                        JOINT LeftHandRing2
                        {
                          OFFSET 5.54985e-05 -3.79994 4.60054e-05
                          CHANNELS 6 Xposition Yposition Zposition Zrotation Xrotation Yrotation
                          JOINT LeftHandRing3
                          {
                            OFFSET 0.000132117 -3.40172 0.00197579
                            CHANNELS 6 Xposition Yposition Zposition Zrotation Xrotation Yrotation
                            End Site
                            {
                              OFFSET 0.000175104 -2.60113 -0.00259199
                            }
                          }
                        }
                      }
                    }
                    JOINT LeftHandPinky
                    {
                      OFFSET -0.749771 -1.75017 -1.84864
                      CHANNELS 6 Xposition Yposition Zposition Zrotation Xrotation Yrotation
                      JOINT LeftHandPinky1
                      {
                        OFFSET 0.00394751 -7.15076 -1.00241
                        CHANNELS 6 Xposition Yposition Zposition Zrotation Xrotation Yrotation
                        JOINT LeftHandPinky2
                        {
                          OFFSET -0.000887054 -3.00182 -0.000394507
                          CHANNELS 6 Xposition Yposition Zposition Zrotation Xrotation Yrotation
                          JOINT LeftHandPinky3
                          {
                            OFFSET 0.00354913 -2.34934 0.00225338
                            CHANNELS 6 Xposition Yposition Zposition Zrotation Xrotation Yrotation
                            End Site
                            {
                              OFFSET 0.00405238 -2.09858 0.00245223
                            }
                          }
                        }
                      }
                    }
                  }
                }
              }
            }
          }
          JOINT RightShoulder
          {
            OFFSET -4.99998 17 -6.07893e-05
            CHANNELS 6 Xposition Yposition Zposition Zrotation Xrotation Yrotation
            JOINT RightShoulder2
            {
              OFFSET -6.45 0 0
              CHANNELS 6 Xposition Yposition Zposition Zrotation Xrotation Yrotation
              JOINT RightArm
              {
                OFFSET -6.44999 4.67858e-05 0.000116892
                CHANNELS 6 Xposition Yposition Zposition Zrotation Xrotation Yrotation
                JOINT RightForeArm
                {
                  OFFSET -0.00329256 -32.3852 -1.98307
                  CHANNELS 6 Xposition Yposition Zposition Zrotation Xrotation Yrotation
                  JOINT RightHand
                  {
                    OFFSET 0.000498836 -25.6492 1.99813
                    CHANNELS 6 Xposition Yposition Zposition Zrotation Xrotation Yrotation
                    JOINT RightHandThumb1
                    {
                      OFFSET 0.503618 -1.49925 2.65207
                      CHANNELS 6 Xposition Yposition Zposition Zrotation Xrotation Yrotation
                      JOINT RightHandThumb2
                      {
                        OFFSET -9.62675e-05 -3.79997 3.69998
                        CHANNELS 6 Xposition Yposition Zposition Zrotation Xrotation Yrotation
                        JOINT RightHandThumb3
                        {
                          OFFSET 0.000585859 -3.01487 2.69646
                          CHANNELS 6 Xposition Yposition Zposition Zrotation Xrotation Yrotation
                          End Site
                          {
                            OFFSET -7.73313e-05 -2.29999 1.79997
                          }
                        }
                      }
                    }
                    JOINT RightHandIndex
                    {
                      OFFSET 0.0002114 -1.90144 1.59826
                      CHANNELS 6 Xposition Yposition Zposition Zrotation Xrotation Yrotation
                      JOINT RightHandIndex1
                      {
                        OFFSET 0.000548304 -8.29315 1.90323
                        CHANNELS 6 Xposition Yposition Zposition Zrotation Xrotation Yrotation
                        JOINT RightHandIndex2
                        {
                          OFFSET -0.000457573 -4.50051 0.00194377
                          CHANNELS 6 Xposition Yposition Zposition Zrotation Xrotation Yrotation
                          JOINT RightHandIndex3
                          {
                            OFFSET -0.00570412 -3.40139 0.00183558
                            CHANNELS 6 Xposition Yposition Zposition Zrotation Xrotation Yrotation
                            End Site
                            {
                              OFFSET -0.000820188 -2.59867 0.00229616
                            }
                          }
                        }
                      }
                    }
                    JOINT RightHandMiddle
                    {
                      OFFSET 0.247088 -2.20221 0.398797
                      CHANNELS 6 Xposition Yposition Zposition Zrotation Xrotation Yrotation
                      JOINT RightHandMiddle1
                      {
                        OFFSET 0.00221416 -8.30225 1.00142
                        CHANNELS 6 Xposition Yposition Zposition Zrotation Xrotation Yrotation
                        JOINT RightHandMiddle2
                        {
                          OFFSET 0.00249857 -4.65058 -0.00492085
                          CHANNELS 6 Xposition Yposition Zposition Zrotation Xrotation Yrotation
                          JOINT RightHandMiddle3
                          {
                            OFFSET -0.00555943 -3.28951 0.0202267
                            CHANNELS 6 Xposition Yposition Zposition Zrotation Xrotation Yrotation
                            End Site
                            {
                              OFFSET 0.000121334 -2.69926 0.00171263
                            }
                          }
                        }
                      }
                    }
                    JOINT RightHandRing
                    {
                      OFFSET 0.501401 -2.15046 -0.799614
                      CHANNELS 6 Xposition Yposition Zposition Zrotation Xrotation Yrotation
                      JOINT RightHandRing1
                      {
                        OFFSET 0.00271332 -7.74967 -0.199221
                        CHANNELS 6 Xposition Yposition Zposition Zrotation Xrotation Yrotation
                        JOINT RightHandRing2
                        {
                          OFFSET -0.00252076 -3.80171 -0.0016493
                          CHANNELS 6 Xposition Yposition Zposition Zrotation Xrotation Yrotation
                          JOINT RightHandRing3
                          {
                            OFFSET -0.000824515 -3.3986 -0.00112315
                            CHANNELS 6 Xposition Yposition Zposition Zrotation Xrotation Yrotation
                            End Site
                            {
                              OFFSET 0.00314114 -2.59817 -0.000351239
                            }
                          }
                        }
                      }
                    }
                    JOINT RightHandPinky
                    {
                      OFFSET 0.747099 -1.74976 -1.8515
                      CHANNELS 6 Xposition Yposition Zposition Zrotation Xrotation Yrotation
                      JOINT RightHandPinky1
                      {
                        OFFSET 0.00229033 -7.14984 -0.998979
                        CHANNELS 6 Xposition Yposition Zposition Zrotation Xrotation Yrotation
                        JOINT RightHandPinky2
                        {
                          OFFSET -0.00242768 -2.99834 -0.000398673
                          CHANNELS 6 Xposition Yposition Zposition Zrotation Xrotation Yrotation
                          JOINT RightHandPinky3
                          {
                            OFFSET -0.00386261 -2.34545 0.00910676
                            CHANNELS 6 Xposition Yposition Zposition Zrotation Xrotation Yrotation
                            End Site
                            {
                              OFFSET 0.00248993 -2.11252 -0.00215345
                            }
                          }
                        }
                      }
                    }
                  }
                }
              }
            }
          }
        }
      }
    }
  }
  JOINT LeftUpLeg
  {
    OFFSET 8.00002 0 2.37285e-05
    CHANNELS 6 Xposition Yposition Zposition Zrotation Xrotation Yrotation
    JOINT LeftLeg
    {
      OFFSET 0.000437443 -45.0001 -0.99998
      CHANNELS 6 Xposition Yposition Zposition Zrotation Xrotation Yrotation
      JOINT LeftFoot
      {
        OFFSET 0.000242074 -41 -2.00018
        CHANNELS 6 Xposition Yposition Zposition Zrotation Xrotation Yrotation
        JOINT LeftToeBase
        {
          OFFSET -0.00172008 -7.5 12.5014
          CHANNELS 6 Xposition Yposition Zposition Zrotation Xrotation Yrotation
          JOINT LeftFootToe
          {
            OFFSET 0 0 4
            CHANNELS 6 Xposition Yposition Zposition Zrotation Xrotation Yrotation
            End Site
            {
              OFFSET 0 0 0
            }
          }
        }
      }
    }
  }
  JOINT RightUpLeg
  {
    OFFSET -8.00002 0 -2.37285e-05
    CHANNELS 6 Xposition Yposition Zposition Zrotation Xrotation Yrotation
    JOINT RightLeg
    {
      OFFSET 0.000944316 -45.0002 -0.999016
      CHANNELS 6 Xposition Yposition Zposition Zrotation Xrotation Yrotation
      JOINT RightFoot
      {
        OFFSET 0.00140826 -41.0004 -2.00144
        CHANNELS 6 Xposition Yposition Zposition Zrotation Xrotation Yrotation
        JOINT RightToeBase
        {
          OFFSET -0.00117044 -7.49997 12.4986
          CHANNELS 6 Xposition Yposition Zposition Zrotation Xrotation Yrotation
          JOINT RightFootToe
          {
            OFFSET 0 0 4
            CHANNELS 6 Xposition Yposition Zposition Zrotation Xrotation Yrotation
            End Site
            {
              OFFSET 0 0 0
            }
          }
        }
      }
    }
  }
}
MOTION
Frames:	3
Frame Time:	0.0111111
-148.151 70.1621 1258.11 -0.285002 10.1968 -168.392 5.68434e-14 8 0 2.6115 8.74977 -5.12836 1.13687e-13 8 0 1.62879 3.95232 -3.74365 5.68434e-14 8 -2.27374e-13 0.782105 1.99067 -1.85781 1.13687e-13 8 2.27374e-13 0.780697 1.98731 -1.85914 -8.52651e-14 17 2.27374e-13 6.96619 5.76349 -7.87961 1.42109e-13 10.8 0 10.781 1.36521 -17.4121 5 17 0 -1.18064 3.31075 -5.81168 6.45 -1.27898e-13 0 -0.362709 0.119609 2.62615 6.45 2.84217e-14 2.27374e-13 56.294 -6.84356 8.96379 0 -32.4 -2 2.80497 -43.0032 -10.0987 1.7053e-13 -25.65 2 92.5976 -41.7714 45.2691 -0.5 -1.5 2.65 -0.367555 52.8913 26.689 0 -3.8 3.7 -0.0925346 -0.9277 -0.00575192 0 -3 2.7 0.0138211 -0.183088 -0.00171331 -2.27374e-13 -1.9 1.6 8.21504e-06 -2.70021e-06 4.26639e-06 2.27374e-13 -8.3 1.9 -0.496489 5.9509 0.053324 0 -4.5 -2.84217e-14 -85.2792 0.00338721 -0.00371274 0 -3.4 -8.52651e-14 -76.4962 0.0159574 0.00473483 -0.25 -2.2 0.4 8.21504e-06 -2.70021e-06 4.26639e-06 0 -8.3 1 -2.70354 9.31132 0.433906 -2.27374e-13 -4.65 0 -67.8382 -0.00213656 0.010625 -1.13687e-13 -3.3 0 -90.0002 -2.07418e-05 0.0240134 -0.5 -2.15 -0.8 8.21504e-06 -2.70021e-06 4.26639e-06 0 -7.75 -0.2 -5.72908 15.4133 1.32922 0 -3.8 0 -53.4937 -0.00576603 -0.00587934 -1.13687e-13 -3.4 8.52651e-14 -90.0002 0.00605767 -0.168216 -0.75 -1.75 -1.85 8.21504e-06 -2.70021e-06 4.26639e-06 -2.27374e-13 -7.15 -1 -7.23697 19.3169 2.00551 0 -3 5.68434e-14 -39.9184 0.179884 -0.151761 1.13687e-13 -2.35 -5.68434e-14 -28.4793 0.152514 -0.0292629 -5 17 0 10.9175 2.77386 -6.69527 -6.45 -8.52651e-14 0 -1.4355 -0.106984 -1.61081 -6.45 -2.84217e-14 -2.27374e-13 -21.4595 -4.26194 -24.5285 0 -32.4 -2 19.7421 -48.4745 17.5689 5.68434e-14 -25.65 2 50.557 -11.3939 16.676 0.5 -1.5 2.65 -40.5412 24.238 -81.501 1.13687e-13 -3.8 3.7 0.352297 -2.19967 -0.361016 0 -3 2.7 0.0615672 34.3828 -0.0399908 0 -1.9 1.6 -3.18055e-15 6.36111e-15 -1.59028e-15 0 -8.3 1.9 0.265192 -3.55625 -0.00995487 1.13687e-13 -4.5 -2.84217e-13 0.142664 0.333636 0.359933 1.13687e-13 -3.4 -1.7053e-13 0.00146946 0.326474 -0.378057 0.25 -2.2 0.4 -3.18055e-15 6.36111e-15 -1.59028e-15 1.13687e-13 -8.3 1 0.729567 0.219613 -0.0915734 -1.13687e-13 -4.65 -5.68434e-14 0.718269 2.85825 0.274396 0 -3.3 5.68434e-14 9.74839 -0.0398968 -0.00200823 0.5 -2.15 -0.8 -3.18055e-15 6.36111e-15 -1.59028e-15 0 -7.75 -0.2 1.69122 8.35123 -0.359113 1.13687e-13 -3.8 0 0.515692 1.29432 0.037177 -1.13687e-13 -3.4 -2.27374e-13 3.48879 0.0172303 -0.00111993 0.75 -1.75 -1.85 -3.18055e-15 6.36111e-15 -1.59028e-15 0 -7.15 -1 2.12898 11.9916 -0.528555 0 -3 2.27374e-13 -0.0120693 0.00972779 -0.0129096 0 -2.35 0 -0.00117761 0.00337919 -0.0127325 8 -5.68434e-14 -2.27374e-13 -4.70322 -56.6358 21.1468 0 -45 -1 48.8215 45.3565 -50.9796 5.68434e-14 -41 -2 -8.47506 1.22293 9.10327 0 -7.5 12.5 -2.85871e-05 -8.72744e-06 -0.132108 -1.13687e-13 0 4 -2.92944 0.103222 5.13621 -8 0 0 -44.1971 -32.9524 -0.372103 0 -45 -1 83.9416 20.9808 -54.1681 0 -41 -2 -38.1126 11.4495 30.2493 0 -7.5 12.5 -5.87e-07 -26.3037 -1.69735e-06 -1.13687e-13 0 4 4.74492 26.843 16.7857 
-148.166 70.1814 1258.06 -0.284932 10.0496 -168.569 0 8 2.27374e-13 2.68014 8.71132 -5.2524 1.7053e-13 8 2.27374e-13 1.66005 4.0004 -3.72975 2.84217e-14 8 -2.27374e-13 0.797459 2.01495 -1.85041 1.13687e-13 8 0 0.79543 2.01183 -1.84716 -1.42109e-13 17 0 6.92953 5.61326 -7.78496 8.52651e-14 10.8 -2.27374e-13 10.7598 1.31032 -17.2187 5 17 0 -1.2531 3.21059 -5.83226 6.45 -1.27898e-13 0 -0.372981 0.119725 2.62722 6.45 -1.42109e-14 -2.27374e-13 56.1478 -6.50157 8.94804 0 -32.4 -2 2.79203 -42.9885 -10.0125 1.13687e-13 -25.65 2 92.6108 -42.5263 44.7802 -0.5 -1.5 2.65 0.320275 53.0366 27.3705 2.27374e-13 -3.8 3.7 -0.0925346 -0.9277 -0.00575192 -2.27374e-13 -3 2.7 0.0138211 -0.183088 -0.00171331 -2.27374e-13 -1.9 1.6 8.21504e-06 -2.70021e-06 4.26639e-06 -2.27374e-13 -8.3 1.9 -0.450046 5.67965 0.0454903 -2.27374e-13 -4.5 -2.84217e-14 -85.2948 0.00564495 -0.00371274 0 -3.4 -1.7053e-13 -76.5342 0.0159574 0.0019927 -0.25 -2.2 0.4 8.21504e-06 -2.70021e-06 4.26639e-06 0 -8.3 1 -2.34751 9.03375 0.397124 -2.27374e-13 -4.65 2.84217e-14 -67.7627 -0.00213656 0.010625 -8.52651e-14 -3.3 5.68434e-14 -90.0002 -2.07418e-05 0.0240134 -0.5 -2.15 -0.8 8.21504e-06 -2.70021e-06 4.26639e-06 -2.27374e-13 -7.75 -0.2 -4.86515 15.3663 1.21523 0 -3.8 1.42109e-14 -52.8917 0.0137063 -0.0139165 -1.27898e-13 -3.4 2.84217e-14 -90.0002 0.00605767 -0.166313 -0.75 -1.75 -1.85 8.21504e-06 -2.70021e-06 4.26639e-06 0 -7.15 -1 -6.27179 19.279 1.84262 1.13687e-13 -3 5.68434e-14 -33.1871 0.125766 -0.156832 1.7053e-13 -2.35 -5.68434e-14 -23.9571 0.118811 -0.0553509 -5 17 0 10.9809 2.66811 -6.58006 -6.45 -8.52651e-14 0 -1.42187 -0.107488 -1.60298 -6.45 2.84217e-14 2.27374e-13 -21.1559 -4.10634 -24.7416 1.13687e-13 -32.4 -2 19.7338 -49.011 17.6701 0 -25.65 2 50.4799 -11.6355 16.2314 0.5 -1.5 2.65 -40.7821 24.2326 -80.6868 1.13687e-13 -3.8 3.7 0.352297 -2.19967 -0.361016 0 -3 2.7 0.0615529 34.3658 -0.0399827 0 -1.9 1.6 -9.54166e-15 -3.18055e-15 1.59028e-15 0 -8.3 1.9 0.178146 -2.7432 -0.0118216 1.13687e-13 -4.5 -1.7053e-13 0.142641 0.335504 0.361827 -1.13687e-13 -3.4 -2.27374e-13 0.00149218 0.328289 -0.379932 0.25 -2.2 0.4 -9.54166e-15 -3.18055e-15 1.59028e-15 -1.13687e-13 -8.3 1 0.750271 1.10002 -0.110538 -1.13687e-13 -4.65 -5.68434e-14 0.796217 3.16731 0.331362 1.13687e-13 -3.3 0 10.6754 -0.0230012 -0.00200823 0.5 -2.15 -0.8 -9.54166e-15 -3.18055e-15 1.59028e-15 0 -7.75 -0.2 1.94964 9.39607 -0.441586 1.13687e-13 -3.8 -1.13687e-13 0.430756 1.08176 0.0234297 0 -3.4 -2.27374e-13 2.94181 0.0154933 -0.00319756 0.75 -1.75 -1.85 -9.54166e-15 -3.18055e-15 1.59028e-15 0 -7.15 -1 2.49635 13.0643 -0.651559 1.13687e-13 -3 0 -0.0120699 0.00853303 -0.0104604 -2.27374e-13 -2.35 0 -0.00353468 0.00337919 -0.0103267 8 0 -2.27374e-13 -4.84747 -56.6589 21.0572 0 -45 -1 48.8157 45.3374 -50.8755 0 -41 -2 -8.45157 1.14003 9.54381 -1.13687e-13 -7.5 12.5 -2.85871e-05 -8.72744e-06 -0.132108 -2.27374e-13 0 4 -3.01701 0.103213 5.19165 -8 0 2.27374e-13 -44.2151 -33.1448 -0.352577 0 -45 -1 83.9377 20.9739 -54.1122 -1.42109e-14 -41 -2 -38.1453 11.478 30.2669 0 -7.5 12.5 -5.8822e-07 -26.3406 -1.69789e-06 0 0 4 4.75655 26.8812 16.7792 
-148.186 70.2014 1258.02 -0.283939 9.90594 -168.745 -5.68434e-14 8 4.54747e-13 2.75188 8.6758 -5.37674 1.7053e-13 8 0 1.69392 4.05061 -3.71621 -5.68434e-14 8 0 0.8141 2.04031 -1.84314 8.52651e-14 8 -2.27374e-13 0.812818 2.03773 -1.84022 -1.42109e-13 17 2.27374e-13 6.89055 5.46236 -7.68863 1.13687e-13 10.8 -2.27374e-13 10.7431 1.26427 -17.0228 5 17 0 -1.33393 3.09932 -5.85339 6.45 -1.27898e-13 0 -0.386105 0.119439 2.62829 6.45 0 -2.27374e-13 55.9778 -6.15638 8.9227 -5.68434e-14 -32.4 -2 2.7985 -42.9813 -9.89338 8.52651e-14 -25.65 2 92.6089 -43.2635 44.3061 -0.5 -1.5 2.65 0.995341 53.1598 27.9943 0 -3.8 3.7 -0.0925346 -0.9277 -0.00575192 0 -3 2.7 0.0138211 -0.183088 -0.00171331 -2.27374e-13 -1.9 1.6 8.21504e-06 -2.70021e-06 4.26639e-06 2.27374e-13 -8.3 1.9 -0.410994 5.44913 0.0388132 0 -4.5 0 -85.3385 0.00785484 -0.00371274 0 -3.4 -1.13687e-13 -76.6409 0.0159574 -0.00090667 -0.25 -2.2 0.4 8.21504e-06 -2.70021e-06 4.26639e-06 -2.27374e-13 -8.3 1 -2.05484 8.78378 0.365581 -2.27374e-13 -4.65 2.84217e-14 -67.6728 -0.00213656 0.010625 -1.98952e-13 -3.3 5.68434e-14 -90.0002 -2.07418e-05 0.0240134 -0.5 -2.15 -0.8 8.21504e-06 -2.70021e-06 4.26639e-06 -2.27374e-13 -7.75 -0.2 -4.16292 15.2939 1.11893 0 -3.8 1.42109e-14 -52.0124 0.0288526 -0.0187634 -1.13687e-13 -3.4 7.10543e-14 -90.0002 0.00605767 -0.164415 -0.75 -1.75 -1.85 8.21504e-06 -2.70021e-06 4.26639e-06 0 -7.15 -1 -5.49277 19.2044 1.70539 -1.13687e-13 -3 5.68434e-14 -26.7578 0.0794288 -0.150609 0 -2.35 -8.52651e-14 -19.6297 0.0875015 -0.0707583 -5 17 2.27374e-13 11.0394 2.55441 -6.46582 -6.45 -8.52651e-14 -2.27374e-13 -1.40575 -0.108044 -1.59184 -6.45 0 2.27374e-13 -20.873 -3.94439 -24.9644 0 -32.4 -2 19.7416 -49.4923 17.8308 0 -25.65 2 50.2736 -11.9005 15.8139 0.5 -1.5 2.65 -40.908 24.2333 -79.8854 2.27374e-13 -3.8 3.7 0.352297 -2.19967 -0.361016 -1.13687e-13 -3 2.7 0.0616168 34.4413 -0.0400188 0 -1.9 1.6 -3.18055e-15 3.18055e-15 -0 1.13687e-13 -8.3 1.9 0.106848 -2.08093 -0.01145 0 -4.5 -1.7053e-13 0.142618 0.337359 0.363713 -1.13687e-13 -3.4 -2.27374e-13 0.0015149 0.330097 -0.381796 0.25 -2.2 0.4 -3.18055e-15 3.18055e-15 -0 0 -8.3 1 0.76785 1.81771 -0.124373 -1.13687e-13 -4.65 -1.13687e-13 0.858467 3.41601 0.378252 0 -3.3 -1.13687e-13 11.4191 -0.00882136 -0.00200823 0.5 -2.15 -0.8 -3.18055e-15 3.18055e-15 -0 -1.13687e-13 -7.75 -0.2 2.16316 10.2513 -0.508183 1.13687e-13 -3.8 -1.13687e-13 0.381882 0.959707 0.0192579 0 -3.4 -3.41061e-13 2.62593 0.0122236 -0.00119897 0.75 -1.75 -1.85 -3.18055e-15 3.18055e-15 -0 0 -7.15 -1 2.80162 13.9472 -0.752565 0 -3 0 -0.0120703 0.00858388 -0.00788318 0 -2.35 0 -0.00174692 0.00337919 -0.00779158 8 0 0 -4.98391 -56.6803 20.9713 5.68434e-14 -45 -1 48.8039 45.3174 -50.7747 0 -41 -2 -8.42886 1.06167 9.98652 0 -7.5 12.5 -2.85871e-05 -8.72744e-06 -0.132108 -2.27374e-13 0 4 -3.10504 0.103155 5.17018 -8 5.68434e-14 2.27374e-13 -44.2368 -33.329 -0.335171 0 -45 -1 83.9305 20.9669 -54.0485 1.42109e-14 -41 -2 -38.1766 11.5092 30.2933 0 -7.5 12.5 -5.8935e-07 -26.3747 -1.69839e-06 0 1.38778e-17 4 4.76083 26.9242 16.7832 
